<?xml version="1.0" encoding="utf-8"?>
<!-- Generator: Adobe Illustrator 13.0.0, SVG Export Plug-In . SVG Version: 6.00 Build 14948)  -->
<!DOCTYPE svg PUBLIC "-//W3C//DTD SVG 1.0//EN" "http://www.w3.org/TR/2001/REC-SVG-20010904/DTD/svg10.dtd">
<svg version="1.0" id="Layer_1" xmlns="http://www.w3.org/2000/svg" xmlns:xlink="http://www.w3.org/1999/xlink" x="0px" y="0px"
	 width="518.738px" height="552.462px" viewBox="0 0 518.738 552.462" enable-background="new 0 0 518.738 552.462"
	 xml:space="preserve">
<pattern  x="-28.838" y="564" width="69" height="69" patternUnits="userSpaceOnUse" id="Polka_Dot_Pattern" viewBox="2.125 -70.896 69 69" overflow="visible"/>

<g>
	<path d="M491.524,452.51c-1.597-0.272-3.177-0.381-4.732-0.369c0.24-2.57,0.369-5.172,0.369-7.805c0-1.579-0.055-3.145-0.142-4.703
		h-0.052c-1.47-14.774-37.811-26.603-82.435-26.603c-45.558,0-82.487,12.326-82.487,27.532c0,0.055,0.005,0.108,0.007,0.164
		c-0.054,1.197-0.094,2.398-0.094,3.609c0,45.618,36.981,82.599,82.601,82.599c27.91,0,52.584-13.844,67.537-35.034
		c3.284,2.577,7.303,4.437,11.812,5.205c13.435,2.295,26.03-5.828,28.133-18.143S504.958,454.804,491.524,452.51z M459.892,458.359
		c4.226-2.859,6.622-6.087,6.622-9.508c0-11.677-27.75-21.144-61.981-21.144c-34.232,0-61.98,9.467-61.98,21.144
		c0,3.421,2.395,6.649,6.62,9.509c-10.239-4.141-16.392-9.449-16.392-15.238c0-13.229,32.122-23.95,71.752-23.95
		c39.627,0,71.751,10.722,71.751,23.95C476.284,448.911,470.133,454.22,459.892,458.359z M501.906,477.232
		c-1.499,8.769-11.485,14.38-22.308,12.531c-1.804-0.309-3.509-0.812-5.104-1.464c5.678-9.011,8.918-16.15,10.762-27.062
		C495.553,463.421,503.357,468.728,501.906,477.232z"/>
	<path d="M500.849,500.134h-1.331c7.145,4.07,11.199,8.678,11.199,13.564c0,16.487-45.881,29.853-102.479,29.853
		c-56.597,0-102.479-13.365-102.479-29.853c0-4.886,4.045-9.494,11.187-13.564h-1.343c-11.297,5.312-17.864,11.653-17.864,18.465
		c0,18.703,49.474,33.863,110.5,33.863c61.028,0,110.5-15.16,110.5-33.863C518.738,511.785,512.15,505.445,500.849,500.134z"/>
</g>

<path d="M403.737,408.771c-20.347-8.405-32.645-28.064-32.641-48.792l0,0c0-6.715,1.289-13.545,4.011-20.125l0,0
	c6.821-16.507,22.772-26.486,39.588-26.481l0,0c5.447,0,10.99,1.044,16.33,3.254l0,0c13.436,5.554,21.559,18.535,21.555,32.226l0,0
	c0,4.434-0.853,8.946-2.646,13.294l0,0c-4.541,10.978-15.15,17.616-26.336,17.614l0,0c-3.627,0-7.315-0.699-10.864-2.163l0,0
	c-9.013-3.73-14.465-12.439-14.463-21.624l0,0c0-2.977,0.57-6.01,1.777-8.918l0,0c3.077-7.443,10.268-11.946,17.851-11.942l0,0
	c2.455-0.002,4.96,0.472,7.367,1.468l0,0c6.186,2.558,9.925,8.534,9.92,14.836l0,0c0.003,2.044-0.394,4.12-1.215,6.121l0,0
	c-2.145,5.177-7.148,8.312-12.425,8.307l0,0c-1.712,0.003-3.454-0.328-5.124-1.017l0,0c-4.375-1.813-7.024-6.037-7.021-10.496l0,0
	c-0.002-1.442,0.274-2.923,0.861-4.328l0,0c1.546-3.729,5.148-5.99,8.949-5.987l0,0c1.23,0,2.492,0.237,3.697,0.736l0,0
	c1.531,0.635,2.258,2.391,1.623,3.922l0,0c-0.634,1.529-2.39,2.256-3.919,1.622l0,0c-0.47-0.193-0.934-0.28-1.401-0.28l0,0
	c-1.444,0.005-2.819,0.855-3.407,2.287l0,0c-0.276,0.664-0.404,1.345-0.404,2.028l0,0c0.004,2.101,1.247,4.1,3.311,4.948l0,0
	c0.934,0.385,1.89,0.564,2.835,0.564l0,0c2.922-0.002,5.697-1.729,6.877-4.594l0,0c0.521-1.269,0.765-2.562,0.765-3.834l0,0
	c-0.004-3.948-2.338-7.695-6.214-9.292l0,0c-1.672-0.691-3.384-1.011-5.075-1.011l0,0c-5.228,0.002-10.188,3.096-12.307,8.235l0,0
	c-0.899,2.173-1.321,4.412-1.321,6.624l0,0c0.003,6.828,4.049,13.311,10.755,16.078l0,0c2.812,1.161,5.714,1.708,8.572,1.708l0,0
	c8.829-0.004,17.212-5.233,20.788-13.902l0,0c1.491-3.614,2.192-7.339,2.192-11.005l0,0c-0.002-11.334-6.717-22.089-17.844-26.68
	l0,0c-4.606-1.904-9.359-2.8-14.04-2.8l0,0c-14.461,0.003-28.181,8.572-34.043,22.775l0,0c-2.415,5.842-3.555,11.883-3.555,17.831
	l0,0c0.002,18.37,10.891,35.802,28.929,43.247l0,0v0.002c1.531,0.632,2.26,2.386,1.628,3.917l0,0
	c-0.479,1.157-1.597,1.854-2.773,1.854l0,0C404.499,408.999,404.111,408.926,403.737,408.771L403.737,408.771z"/>

</svg>
